# xmcd
#
# Track frame offsets: 
#        150
#        16650
#        31100
#        49977
#        70461
#        87949
#        113680
#        128194
#        149369
#        166094
#        182654
#        203413
#        236049
#        261970
#
# Disc length: 3752 seconds
#
# Revision: 0
# Processed by: cddbd v1.5.2PL0 Copyright (c) Steve Scherf et al.
# Submitted via: ExactAudioCopy v1.3
#
DISCID=b80ea60e
DTITLE=Various Artist - Soul Bag Sampler, Mar 2012
DYEAR=2012
DGENRE=Blues
TTITLE0=Galvin, Milteau, Robinson, Smith - Higher and higher
TTITLE1=Sharrie Williams - Although I sing the blues
TTITLE2=Sky Hi - Fell short
TTITLE3=Latimore - Made in America
TTITLE4=Nico Wayne Toussaint - How long to heal
TTITLE5=Diunna Greenleaf - Tryin' to hold on
TTITLE6=Cedric Burnside Project - Big mamma
TTITLE7=Harrison Kennedy - That's just stupid
TTITLE8=Harrison Kennedy - Little things
TTITLE9=Rahsaan Patterson - Easier said than done
TTITLE10=Ernest Lane - Everybody's fool
TTITLE11=Terry Evans - What about me
TTITLE12=Marquise Knox - Here I am
TTITLE13=Sugar Ray and The Bluetones - I'm certain that I'm hurting
EXTD=
EXTT0=
EXTT1=
EXTT2=
EXTT3=
EXTT4=
EXTT5=
EXTT6=
EXTT7=
EXTT8=
EXTT9=
EXTT10=
EXTT11=
EXTT12=
EXTT13=
PLAYORDER=
